# xmcd
#
# Track frame offsets: 
#        182
#        14347
#        36965
#
# Disc length: 761 seconds
#
# Revision: 1
# Processed by: cddbd v1.5.2PL0 Copyright (c) Steve Scherf et al.
# Submitted via: ExactAudioCopy v0.99pb3
#
DISCID=1c02f703
DTITLE=Therapy? - Isolation
DYEAR=1994
DGENRE=Alt. Rock
TTITLE0=Isolation
TTITLE1=Lunacy Booth (String Version)
TTITLE2=Isolation (Consolidated Mix)
EXTD=
EXTT0=
EXTT1=
EXTT2=
PLAYORDER=
